# 3ds Max Wavefront OBJ Exporter v0.97b - (c)2007 guruware
# File Created: 30.04.2020 16:34:06

mtllib casa.mtl

#
# object Box001
#

v  -78.7402 0.0000 78.7402
v  -78.7402 0.0000 39.3701
v  -39.3701 0.0000 39.3701
v  -39.3701 0.0000 78.7402
v  0.0000 0.0000 39.3701
v  0.0000 0.0000 78.7402
v  39.3701 0.0000 39.3701
v  39.3701 0.0000 78.7402
v  78.7402 0.0000 39.3701
v  78.7402 0.0000 78.7402
v  -78.7402 0.0000 -0.0000
v  -39.3701 0.0000 -0.0000
v  0.0000 0.0000 -0.0000
v  39.3701 0.0000 -0.0000
v  78.7402 0.0000 -0.0000
v  -78.7402 0.0000 -39.3701
v  -39.3701 0.0000 -39.3701
v  0.0000 0.0000 -39.3701
v  39.3701 0.0000 -39.3701
v  78.7402 0.0000 -39.3701
v  -78.7402 0.0000 -78.7402
v  -39.3701 0.0000 -78.7402
v  0.0000 0.0000 -78.7402
v  39.3701 0.0000 -78.7402
v  78.7402 0.0000 -78.7402
v  -39.3701 109.7005 115.3744
v  -0.0000 109.7005 115.3744
v  -0.0000 147.8948 39.3701
v  -39.3701 147.8948 39.3701
v  39.3701 109.7005 115.3744
v  39.3701 147.8948 39.3701
v  109.2275 97.4687 109.2275
v  115.3744 109.7005 39.3701
v  -0.0000 163.6541 0.0000
v  -39.3701 147.8948 -0.0000
v  39.3701 147.8948 35.6951
v  39.3701 147.8948 -0.0000
v  115.3744 109.7005 -0.0000
v  -115.3744 109.7005 -0.0000
v  -39.3701 147.8948 -39.3701
v  -115.3744 109.7005 -39.3701
v  39.3701 147.8948 -39.3701
v  -0.0000 147.8948 -39.3701
v  115.3744 109.7005 -39.3701
v  -109.2275 97.4687 -109.2275
v  -0.0000 109.7005 -115.3744
v  -39.3701 109.7005 -115.3744
v  39.3701 109.7005 -115.3744
v  109.2275 97.4687 -109.2275
v  -39.3701 29.5276 78.7402
v  -78.7402 29.5276 78.7402
v  0.0000 29.5276 78.7402
v  39.3701 29.5276 78.7402
v  78.7402 29.5276 78.7402
v  -39.3701 59.0551 78.7402
v  -78.7402 59.0551 78.7402
v  0.0000 59.0551 78.7402
v  39.3701 59.0551 78.7402
v  78.7402 59.0551 78.7402
v  -39.3701 88.5827 78.7402
v  -78.7402 88.5827 78.7402
v  0.0000 88.5827 78.7402
v  39.3701 88.5827 78.7402
v  78.7402 88.5827 78.7402
v  -39.3701 118.1102 78.7402
v  -78.7402 118.1102 78.7402
v  0.0000 118.1102 78.7402
v  39.3701 118.1102 78.7402
v  78.7402 118.1102 78.7402
v  78.7402 29.5276 39.3701
v  78.7402 29.5276 -0.0000
v  78.7402 29.5276 -39.3701
v  78.7402 29.5276 -78.7402
v  78.7402 59.0551 39.3701
v  78.7402 59.0551 -0.0000
v  78.7402 59.0551 -39.3701
v  78.7402 59.0551 -78.7402
v  78.7402 88.5827 39.3701
v  78.7402 88.5827 -0.0000
v  78.7402 88.5827 -39.3701
v  78.7402 88.5827 -78.7402
v  78.7402 118.1102 39.3701
v  78.7402 118.1102 -0.0000
v  78.7402 118.1102 -39.3701
v  78.7402 118.1102 -78.7402
v  39.3701 29.5276 -78.7402
v  0.0000 29.5276 -78.7402
v  -39.3701 29.5276 -78.7402
v  -78.7402 29.5276 -78.7402
v  39.3701 59.0551 -78.7402
v  0.0000 59.0551 -78.7402
v  -39.3701 59.0551 -78.7402
v  -78.7402 59.0551 -78.7402
v  39.3701 88.5827 -78.7402
v  0.0000 88.5827 -78.7402
v  -39.3701 88.5827 -78.7402
v  -78.7402 88.5827 -78.7402
v  39.3701 118.1102 -78.7402
v  0.0000 118.1102 -78.7402
v  -39.3701 118.1102 -78.7402
v  -78.7402 118.1102 -78.7402
v  -78.7402 29.5276 -39.3701
v  -78.7402 29.5276 -0.0000
v  -78.7402 59.0551 -39.3701
v  -78.7402 59.0551 -0.0000
v  -78.7402 88.5827 -39.3701
v  -78.7402 88.5827 -0.0000
v  -78.7402 59.0551 39.3701
v  -78.7402 88.5827 39.3701
v  -78.7402 118.1102 -39.3701
v  -78.7402 118.1102 -0.0000
v  -78.7402 118.1102 39.3701
v  -109.2275 97.4687 109.2275
# 113 vertices

vn 0.0000 -0.7071 0.7071
vn 0.0000 -1.0000 -0.0000
vn 0.7071 -0.7071 -0.0000
vn 0.5774 -0.5774 0.5774
vn -0.4472 -0.8944 -0.0000
vn -0.7071 -0.7071 -0.0000
vn -0.5774 -0.5774 -0.5774
vn 0.0000 -0.7071 -0.7071
vn 0.5774 -0.5774 -0.5774
vn -0.0228 -0.2836 0.9587
vn 0.0000 -0.3388 0.9409
vn 0.0000 0.9118 0.4107
vn -0.1156 0.9309 0.3464
vn 0.0228 -0.2836 0.9587
vn 0.1966 0.9606 0.1966
vn 0.6489 -0.3973 0.6489
vn 0.9587 -0.2836 0.0228
vn 0.0017 1.0000 0.0028
vn -0.3977 0.9175 -0.0000
vn 0.4107 0.9118 0.0000
vn 0.4107 0.9118 -0.0000
vn 0.9409 -0.3388 -0.0000
vn -0.9409 -0.3388 -0.0000
vn -0.2451 0.9380 -0.2451
vn -0.9587 -0.2836 -0.0228
vn 0.2451 0.9380 -0.2451
vn 0.0000 0.9118 -0.4107
vn 0.9587 -0.2836 -0.0228
vn -0.6489 -0.3973 -0.6489
vn 0.0000 -0.3388 -0.9409
vn -0.0228 -0.2836 -0.9587
vn 0.0228 -0.2836 -0.9587
vn 0.6489 -0.3973 -0.6489
vn 0.0000 0.0000 1.0000
vn 0.7071 0.0000 0.7071
vn -0.4472 0.0000 0.8944
vn -0.7071 0.0000 0.7071
vn 0.0000 -0.7822 0.6230
vn -0.6376 -0.7605 0.1228
vn 0.0802 -0.9935 0.0802
vn 1.0000 0.0000 -0.0000
vn 0.7071 0.0000 -0.7071
vn 0.6230 -0.7822 -0.0000
vn 0.0802 -0.9935 -0.0802
vn 0.0000 0.0000 -1.0000
vn -0.7071 0.0000 -0.7071
vn 0.0000 -0.7822 -0.6230
vn -0.0802 -0.9935 -0.0802
vn -1.0000 0.0000 -0.0000
vn -0.6230 -0.7822 -0.0000
vn -0.8767 -0.4810 -0.0000
vn -0.0311 -0.3013 0.9530
# 52 vertex normals

vt 1.0000 0.0000 0.0000
vt 1.0000 0.2500 0.0000
vt 0.7500 0.2500 0.0000
vt 0.7500 0.0000 0.0000
vt 0.5000 0.2500 0.0000
vt 0.5000 0.0000 0.0000
vt 0.2500 0.2500 0.0000
vt 0.2500 0.0000 0.0000
vt 0.0000 0.2500 0.0000
vt 0.0000 0.0000 0.0000
vt 1.0000 0.5000 0.0000
vt 0.7500 0.5000 0.0000
vt 0.5000 0.5000 0.0000
vt 0.2500 0.5000 0.0000
vt 0.0000 0.5000 0.0000
vt 1.0000 0.7500 0.0000
vt 0.7500 0.7500 0.0000
vt 0.5000 0.7500 0.0000
vt 0.2500 0.7500 0.0000
vt 0.0000 0.7500 0.0000
vt 1.0000 1.0000 0.0000
vt 0.7500 1.0000 0.0000
vt 0.5000 1.0000 0.0000
vt 0.2500 1.0000 0.0000
vt 0.0000 1.0000 0.0000
vt 0.7500 0.2733 0.0000
# 26 texture coords

o Box001
g Box001
usemtl Material__59
s 2
f 1/1/1 2/2/2 3/3/2 4/4/1 
f 4/4/1 3/3/2 5/5/2 6/6/1 
f 6/6/1 5/5/2 7/7/2 8/8/1 
f 8/8/1 7/7/2 9/9/3 10/10/4 
f 2/2/2 11/11/5 12/12/2 3/3/2 
f 3/3/2 12/12/2 13/13/2 5/5/2 
f 5/5/2 13/13/2 14/14/2 7/7/2 
f 7/7/2 14/14/2 15/15/3 9/9/3 
f 11/11/5 16/16/6 17/17/2 12/12/2 
f 12/12/2 17/17/2 18/18/2 13/13/2 
f 13/13/2 18/18/2 19/19/2 14/14/2 
f 14/14/2 19/19/2 20/20/3 15/15/3 
f 16/16/6 21/21/7 22/22/8 17/17/2 
f 17/17/2 22/22/8 23/23/8 18/18/2 
f 18/18/2 23/23/8 24/24/8 19/19/2 
f 19/19/2 24/24/8 25/25/9 20/20/3 
usemtl Material__60
s 4
f 26/8/10 27/6/11 28/5/12 29/7/13 
f 27/6/11 30/4/14 31/3/15 28/5/12 
f 32/1/16 33/2/17 31/3/15 
f 29/7/13 34/13/18 35/14/19 
f 36/26/20 37/12/21 34/13/18 
f 31/3/15 33/2/17 38/11/22 37/12/21 36/26/20 
f 39/15/23 35/14/19 40/19/24 41/20/25 
f 35/14/19 34/13/18 40/19/24 
f 34/13/18 42/17/26 43/18/27 
f 37/12/21 38/11/22 44/16/28 42/17/26 
f 41/20/25 40/19/24 45/25/29 
f 40/19/24 43/18/27 46/23/30 47/24/31 
f 43/18/27 42/17/26 48/22/32 46/23/30 
f 42/17/26 49/21/33 48/22/32 
usemtl Material__59
s 8
f 1/10/1 4/8/1 50/7/34 51/9/34 
usemtl Material__61
f 4/8/1 6/6/1 52/5/34 50/7/34 
f 6/6/1 8/4/1 53/3/34 52/5/34 
usemtl Material__59
f 8/4/1 10/1/4 54/2/35 53/3/34 
f 51/9/34 50/7/34 55/14/34 56/15/36 
usemtl Material__61
f 50/7/34 52/5/34 57/13/34 55/14/34 
f 52/5/34 53/3/34 58/12/34 57/13/34 
usemtl Material__59
f 53/3/34 54/2/35 59/11/35 58/12/34 
f 56/15/36 55/14/34 60/19/34 61/20/37 
usemtl Material__61
f 55/14/34 57/13/34 62/18/34 60/19/34 
f 57/13/34 58/12/34 63/17/34 62/18/34 
usemtl Material__59
f 58/12/34 59/11/35 64/16/35 63/17/34 
f 61/20/37 60/19/34 65/24/38 66/25/39 
f 60/19/34 62/18/34 67/23/38 65/24/38 
f 62/18/34 63/17/34 68/22/38 67/23/38 
f 63/17/34 64/16/35 69/21/40 68/22/38 
s 16
f 10/10/4 9/8/3 70/7/41 54/9/35 
f 9/8/3 15/6/3 71/5/41 70/7/41 
f 15/6/3 20/4/3 72/3/41 71/5/41 
f 20/4/3 25/1/9 73/2/42 72/3/41 
f 54/9/35 70/7/41 74/14/41 59/15/35 
f 70/7/41 71/5/41 75/13/41 74/14/41 
f 71/5/41 72/3/41 76/12/41 75/13/41 
f 72/3/41 73/2/42 77/11/42 76/12/41 
f 59/15/35 74/14/41 78/19/41 64/20/35 
f 74/14/41 75/13/41 79/18/41 78/19/41 
f 75/13/41 76/12/41 80/17/41 79/18/41 
f 76/12/41 77/11/42 81/16/42 80/17/41 
f 64/20/35 78/19/41 82/24/43 69/25/40 
f 78/19/41 79/18/41 83/23/43 82/24/43 
f 79/18/41 80/17/41 84/22/43 83/23/43 
f 80/17/41 81/16/42 85/21/44 84/22/43 
s 32
f 25/10/9 24/8/8 86/7/45 73/9/42 
f 24/8/8 23/6/8 87/5/45 86/7/45 
f 23/6/8 22/4/8 88/3/45 87/5/45 
f 22/4/8 21/1/7 89/2/46 88/3/45 
f 73/9/42 86/7/45 90/14/45 77/15/42 
f 86/7/45 87/5/45 91/13/45 90/14/45 
f 87/5/45 88/3/45 92/12/45 91/13/45 
f 88/3/45 89/2/46 93/11/46 92/12/45 
f 77/15/42 90/14/45 94/19/45 81/20/42 
f 90/14/45 91/13/45 95/18/45 94/19/45 
f 91/13/45 92/12/45 96/17/45 95/18/45 
f 92/12/45 93/11/46 97/16/46 96/17/45 
f 81/20/42 94/19/45 98/24/47 85/25/44 
f 94/19/45 95/18/45 99/23/47 98/24/47 
f 95/18/45 96/17/45 100/22/47 99/23/47 
f 96/17/45 97/16/46 101/21/48 100/22/47 
s 64
f 21/10/7 16/8/6 102/7/49 89/9/46 
f 16/8/6 11/6/5 103/5/49 102/7/49 
f 89/9/46 102/7/49 104/14/49 93/15/46 
f 102/7/49 103/5/49 105/13/49 104/14/49 
f 93/15/46 104/14/49 106/19/49 97/20/46 
f 104/14/49 105/13/49 107/18/49 106/19/49 
f 105/13/49 108/12/49 109/17/49 107/18/49 
f 108/12/49 56/11/36 61/16/37 109/17/49 
f 97/20/46 106/19/49 110/24/50 101/25/48 
f 106/19/49 107/18/49 111/23/51 110/24/50 
f 107/18/49 109/17/49 112/22/49 111/23/51 
f 109/17/49 61/16/37 66/21/39 112/22/49 
usemtl Material__60
s 4
f 113/10/52 26/8/10 29/7/13 
f 31/3/15 30/4/14 32/1/16 
f 42/17/26 44/16/28 49/21/33 
f 40/19/24 47/24/31 45/25/29 
f 29/7/13 28/5/12 34/13/18 
f 34/13/18 28/5/12 31/3/15 36/26/20 
f 34/13/18 37/12/21 42/17/26 
f 34/13/18 43/18/27 40/19/24 
s off
f 66/10/39 65/8/38 26/8/10 113/10/52 
f 65/8/38 67/6/38 27/6/11 26/8/10 
f 67/6/38 68/4/38 30/4/14 27/6/11 
f 68/4/38 69/1/40 32/1/16 30/4/14 
f 69/1/40 82/2/43 33/2/17 32/1/16 
f 82/2/43 83/11/43 38/11/22 33/2/17 
f 83/11/43 84/16/43 44/16/28 38/11/22 
f 84/16/43 85/21/44 49/21/33 44/16/28 
f 85/21/44 98/22/47 48/22/32 49/21/33 
f 98/22/47 99/23/47 46/23/30 48/22/32 
f 99/23/47 100/24/47 47/24/31 46/23/30 
f 100/24/47 101/25/48 45/25/29 47/24/31 
f 101/25/48 110/20/50 41/20/25 45/25/29 
f 110/20/50 111/15/51 39/15/23 41/20/25 
# 98 polygons - 14 triangles

